<svg xmlns="http://www.w3.org/2000/svg" viewBox="0 0 80 80">
  <defs>
    <linearGradient id="grad1" x1="0%" y1="0%" x2="100%" y2="0%">
      <stop offset="0%" style="stop-color:#4facfe;stop-opacity:1" />
      <stop offset="100%" style="stop-color:#00f2fe;stop-opacity:1" />
    </linearGradient>
  </defs>
  
  <!-- Icon Section -->
  <g transform="translate(10, 10)">
    <!-- Open Book Base -->
    <path d="M0,50 Q15,60 30,50 Q45,60 60,50 L60,55 Q45,65 30,55 Q15,65 0,55 Z" fill="#007bff" />
    
    <!-- Ladder on Left -->
    <rect x="5" y="10" width="2" height="40" fill="#333" />
    <rect x="15" y="10" width="2" height="40" fill="#333" />
    <rect x="5" y="15" width="12" height="2" fill="#333" />
    <rect x="5" y="25" width="12" height="2" fill="#333" />
    <rect x="5" y="35" width="12" height="2" fill="#333" />

    <!-- Lightbulb in Center -->
    <circle cx="30" cy="25" r="12" fill="#ffc107" />
    <path d="M26,35 L34,35 L32,45 L28,45 Z" fill="#555" />
    
    <!-- Arrow on Right -->
    <path d="M45,40 L55,20 L60,25" fill="none" stroke="#28a745" stroke-width="3" />
    <polygon points="53,18 62,24 57,28" fill="#28a745" />
  </g>
</svg>
